<?xml version="1.0" encoding="UTF-8" standalone="no"?>
<svg xmlns="http://www.w3.org/2000/svg" width="64px" height="64px" baseProfile="tiny" version="1.1" xmlns:xlink="http://www.w3.org/1999/xlink" viewBox="0 0 64 64">
 <g id="layer1">
  <g id="g3583" transform="translate(-1.4016082,-1.0343539)">
   <path id="path3239" fill="#fcfd04" d="m19.27,58.77c-0.8994-0.7163-1.46-1.59-1.246-1.941,0.2182-0.3574-0.2144-0.3111-0.9827,0.1053-1.302,0.7055-1.352,0.6488-0.9722-1.101,0.3498-1.613,0.1765-1.939-1.376-2.59-2.692-1.129-4.971-6.383-7.222-16.65-0.8118-3.702,5.345-2.309,6.14,0.2261,0.5263,1.679-4.621-1.41-4.621-3.088,0-0.7133,0.3478-1.68,0.773-2.148,0.4251-0.468,1.469-2.02,2.319-3.45,1.223-2.057,2.483-3.056,6.037-4.787,2.47-1.203,4.359-2.403,4.199-2.666-0.1604-0.2629,0.1797-2.003,0.7559-3.866,0.7762-2.51,1.903-4.244,4.348-6.692,1.815-1.817,3.628-3.251,4.029-3.187,0.4005,0.06459,1.511-0.2095,2.469-0.6091,0.9574-0.3996,3.449-0.7265,5.536-0.7265,3.441,0,3.988,0.189,5.861,2.028,1.62,1.589,2.288,0.4365,2.592,1.167,0.6267,1.51,6.841-1.187,6.841-0.8366,0,0.3513-0.4174,0.801-0.9275,0.9992-1.55,0.6024-1.084,1.343,2.783,4.419,4.499,3.579,4.874,5.297,1.509,6.914-1.211,0.5818-2.535,0.5485-2.72,1.037-0.1851,0.4885-0.4039,1.641-0.7084,1.451-0.3045-0.1905-0.5536,0.3746-0.5536,1.256,0,1.816,0.9995,2.17,1.429,0.5066,0.1555-0.6027,0.3151,1.219,0.3545,4.049,0.07597,5.447-0.1283,6.166-4.102,14.44-1.414,2.944-2.819,4.935-3.969,5.623-1.001,0.5986-1.706,1.508-1.611,2.077,0.2488,1.487-1.31,3.083-3.011,3.083-0.9607,0-1.719,0.5231-2.151,1.484-0.5522,1.227-1.271,1.547-4.147,1.848-1.972,0.2061-3.765,0.7598-4.14,1.278-0.7144,0.9892-5.74,1.561-6.967,0.7928-0.4113-0.2574-0.7477-0.1696-0.7477,0.1951,0,1.169-4.094,0.7172-5.797-0.6393l0.000008-0.00013zm2.235-12.77c0.1606-0.8505,0.05383-1.397-0.2371-1.215-0.5124,0.3206-0.7704,2.762-0.2919,2.762,0.1304,0,0.3685-0.6959,0.529-1.546zm16.7-2.913c0.4513-2.14-1.405,0.6125,1.698-1.08,1.772-0.2541,9.799-12.04,5.477-15.53l-1.044-1.192-2.486,0.3929c-1.067,0.2161-2.892,1.134-3.61,1.817-0.7185,0.6834-1.44,0.473-1.944,1.061-1.162,1.356-0.9732,0.7611-1.606,1.469-0.9732,1.089-2.12,2.575-1.455,3.653,0.6582,1.067-1.194,1.576-0.2084,2.375,0.6465,0.5238-0.8711,2.094-0.9908,4.507-0.1476,2.974,0.5398,6.498,1.012,5.226,0.1929-0.5199,5.866-1.043,5.157-2.702zm0.465-24.337c0-0.3444-0.2947-0.6261-0.6549-0.6261s-0.4829,0.2818-0.2727,0.6261c0.2102,0.3444,0.5049,0.6261,0.6549,0.6261s0.2727-0.2818,0.2727-0.6261z"/>
   <path id="path3235" fill="#e3e404" d="m18.91,60.27c-0.2728-2.564,3.368-4.348,4.837-6.39,2.473-2.308,4.507-5.172,5.039-8.583,0.4815-1.352,1.131-4.145-0.8833-1.9-3.418,3.258-7.776,6.456-10.27,10.49-0.7433,1.353-2.089,4.989-3.265,3.869,1.748-3.177-1.436-5.421-2.88-7.399-3.303-4.837-2.548-5.307-3.882-10.917-0.352-0.98-1.859-5.21-1.035-2.53,0.7901,2.583,2.211-2.033,2.074-3.559,1.51-2.174,3.21-4.188,4.974-6.184,2.492-2.42,6.912-3.908,9.453-6.23,0.9987-3.234,0.5066-6.142,2.853-8.793,1.829-2.335,3.399-4.468,6.453-4.959,3.138-1.6,6.432-0.7941,9.835-0.2701,2.466,0.05511,3.873,2.057,6.283,1.376,1.593,0.9115,4.572,0.2693,7.353-0.8066-1.167,0.8389-2.521,1.522-3.542,2.489-0.1281,3.294,1.765,0.4724,3.083,2.631,3.314,1.388-0.3032,2.966,1.064,4.996,1.54-1.449,6.184-2.898,4.686,0.8756-1.789,1.475-4.924,1.726-6.269,3.165-2.055-0.2552-1.575-3.865-3.632-1.178-1.821,1.776-4.424,2.871-3.969,5.777,0.03089,1.214,0.0731,3.156,0.109,4.37,2.323-2.141,4.396-4.595,7.007-6.389,0.7729-0.2579,0.8418,2.441,1.855,0.6316,0.7089-1.332-1.945,6.037-0.5401,5.139,0.1607,3.493-0.3277,5.046-2.056,8.13-1.861,3.908-3.527,7.491-6.9,10.35-1.287,1.895-0.9461,4.404-4.053,4.349-2.328,1.15-2.402,3.152-5.492,2.751-3.062,0.1837-6.526,3.718-9.726,3.342-2.147-0.2986-3.522,0.9868-5.438,1.936-1.061,0.03933-2.18-0.06126-3.122-0.5918zm14.62-3.97c5.885-4.716,11.17-10.15,16.39-15.58,2.785-2.366,3.424-6.051,4.033-9.455,0.5454-1.625-0.8166,0.3182-1.326,0.6671-7.241,7.238-14.79,14.18-21.64,21.8-3.206,1.65-3.689,5.941,1.149,3.383,0.4797-0.2422,0.9382-0.5243,1.385-0.8225zm-15.27-9.11c0.7781-0.3102-1.41-1.796-0.651-3.139-0.0073-1.136-0.0015-2.272-0.0033-3.408-1.583,1.701-3.544,3.114-4.761,5.11-0.286,1.682,0.6862,3.258,1.062,4.871,1.383-1.223,2.665-2.626,4.353-3.434h-0.000042zm2.119-0.7551zm15.73-2.266c0.6142-1.385,0.4601-2.517,2.643-2.364,3.041-2.208,4.817-7.046,6.005-10.43,1.337-4.944,0.33-6.991-3.485-5.216-2.349,1.51-5.353,2.871-7.372,4.779-1.321,1.782,0.8972,3.932-1.392,5.408-0.3001,2.139-1.395,7.535,0.5265,8.911,0.6555-0.02734,2.585-0.646,3.074-1.086zm-4.919-11.309c-2.384,0.1073-4.591,1.521-6.684,2.622-2.14,1.108-1.686,3.871-2.219,5.911-0.5491,1.716,0.3189,0.7084,1.063-0.06132,2.665-2.707,5.65-5.162,7.828-8.295l0.01294-0.1775zm-16.56,1.624c-0.6628-0.7232-1.877-1.843-0.2432-0.9131,2.064,1.546,4.169-0.2426,5.605-1.803,3.71-3.575,7.347-7.225,11.02-10.84-5.567,2.623-11.54,4.786-15.94,9.277-1.954,1.954-4.201,3.76-5.696,6.082-0.7009,1.368-0.9285,5.852,1.649,4.266,1.1-1.678,5.985-3.87,3.606-6.072zm19-6.464c2.644-0.6251,4.497-2.696,6.688-4.103,2.8-0.0099,1.222-2.877-0.339-3.697-0.7158-1.286-1.396-0.2565-2.08,0.4579-2.556,2.614-5.396,5-7.569,7.95,0.9785,0.1284,2.244-0.4053,3.3-0.6082zm13.55-10.04c2.432-1.336,3.43-5.565-0.3729-5.469-1.854,1.214-5.587,3.391-4.288,5.923,1.293,3.167,3.035,1.183,4.661-0.4542zm-8.643,0.4523c-0.7959-1.887-1.654,0.9759-0.08476,0.4545l0.08476-0.4545zm-2.501-5.471c-0.7446-3.851,2.688,2.379,3.94-0.8007,1.091-1.017,3.987-3.473,0.7384-3.397-2.688-1.096-4.903,0.959-6.604,2.772-2.132,2.096-4.247,4.21-6.37,6.314,2.621-1.013,5.409-1.674,7.863-3.053,0.5841-0.4241,0.5101-1.213,0.4324-1.835z"/>
   <path id="path3197" fill="#435c25" d="m25.25,59.74c0-0.4144,0.5802-2.624,1.289-4.911,1.998-6.445,5.47-22.21,5-22.71-0.1217-0.1281-1.587,0.28-3.256,0.9068-4.003,1.503-6.36,3.711-6.36,5.957,0,2.025-2.464,7.434-3.386,7.434-0.3332,0-0.6059-1.968-0.6059-4.374,0-3.552-0.2642-4.65-1.407-5.846-1.377-1.442-1.379-1.465-0.0644-1.127,0.8497,0.2185,2.927-0.5944,5.659-2.215,2.374-1.408,6.37-3.094,8.879-3.746,2.509-0.6523,5.558-1.914,6.775-2.805l2.213-1.618-0.2175,1.871c-0.162,1.394-0.8593,2.204-2.734,3.179-2.72,1.414-3.785,3.679-2.466,5.242,0.6642,0.787,0.6314,0.9728-0.1713,0.9728-1.027,0-1.81,3.004-1.824,6.998-0.007,2.05,0.0332,2.078,2.029,1.394,1.296-0.4443,1.909-1.024,1.687-1.595-0.2201-0.5639,0.2693-1.049,1.319-1.308,1.905-0.47,4.584-5.092,6.027-10.4,1.234-4.536,1.188-4.72-1.09-4.392-1.514,0.2185-1.996,0.03323-1.996-0.7675,0-0.6194,0.5497-1.056,1.331-1.056,0.738,0,1.33-0.4361,1.33-0.9794,0-1.207-4.514-6.217-5.601-6.217-1.465,0-19.92,8.534-23.48,10.86-3.62,2.363-4.894,4.332-5.766,8.913-0.3851,2.023-0.0747,3.188,1.829,6.869,1.261,2.438,2.491,5.095,2.733,5.905,0.2421,0.8095,0.6948,1.472,1.006,1.472,0.3113,0,1.011,0.168,1.555,0.3732,0.6979,0.2634,1.121-0.2181,1.438-1.635,0.464-2.077,2.339-2.831,2.339-0.9398,0,2.017-1.531,6.092-2.787,7.417-1.683,1.777-2.418,1.672-2.037-0.29,0.2477-1.274-0.066-1.787-1.48-2.42-1.94-0.8694-5.15-6.411-5.998-10.36-0.2706-1.259-0.7164-2.584-0.9906-2.944-0.2742-0.3598-0.6552-1.979-0.8466-3.598s-0.2069-2.576-0.0344-2.126c0.4146,1.081,1.533,1.051,1.533-0.04065,0-1.503,2.5-5.936,4.612-8.178,1.123-1.192,4.014-3.047,6.424-4.121,3.358-1.497,4.286-2.199,3.971-3.004-1.286-3.296,4.957-12.25,9.121-13.08,1.014-0.2022,2.004-0.624,2.201-0.9373,0.1969-0.3133,2.617-0.5697,5.378-0.5697,4.423,0,5.263,0.2004,7.055,1.684,1.436,1.188,2.443,1.551,3.422,1.234,0.7631-0.2472,2.57-0.5999,4.015-0.7836l2.628-0.334-1.936,1.637-1.936,1.637,2.077,2.326c1.142,1.279,2.28,2.955,2.528,3.724,0.3196,0.99,0.774,1.265,1.556,0.9401,4.87-2.022,5.646,0.05534,0.9789,2.62-1.715,0.9428-3.437,1.592-3.825,1.443-0.3885-0.1493-1.705-2.195-2.925-4.546-1.557-3-2.783-4.504-4.113-5.046-1.042-0.4243-2.871-1.48-4.064-2.346-1.697-1.231-2.976-1.568-5.866-1.545-2.033,0.01622-4.481,0.3842-5.441,0.8177-1.555,0.7024-9.231,8.308-9.231,9.146,0,1.179,2.875,0.8481,8.044-0.9267,5.378-1.847,5.916-2.181,5.516-3.422-0.2588-0.802,0.9442,0.121,2.886,2.214,7.23,7.794,7.112,7.587,7.112,12.45,0,3.674-0.2916,4.849-1.723,6.941-0.9479,1.386-1.901,3.255-2.118,4.155-0.3559,1.477-3.215,4.83-6.03,7.072-0.5918,0.4713-2.192,1.234-3.556,1.696-2.593,0.8768-3.467,2.396-4.502,7.823-0.4254,2.23-0.3471,2.381,1.232,2.381,2.899,0,12.63-6.215,15.16-9.677,1.235-1.694,3.227-4.151,4.427-5.46,2.536-2.766,4.569-8.098,5.209-13.66,0.3064-2.663,0.7416-3.913,1.362-3.913,0.5016,0,0.9119,0.4416,0.9119,0.9813s-0.3099,0.9813-0.6886,0.9813c-0.4526,0-0.4283,0.4784,0.0709,1.396,0.9085,1.669,0.3256,6.037-1.067,7.991-0.5371,0.754-0.9765,2.024-0.9765,2.822,0,0.7982-0.3241,1.648-0.7203,1.889-0.3962,0.2408-1.273,1.706-1.949,3.256-0.6756,1.55-2.148,3.486-3.271,4.303-1.124,0.8169-2.043,1.96-2.043,2.54,0,1.502-1.343,2.625-3.141,2.625-0.9871,0-1.808,0.5699-2.276,1.58-0.5899,1.273-1.513,1.715-4.762,2.278-2.217,0.3839-4.201,0.964-4.41,1.289-0.5923,0.9224-6.699,1.218-6.699,0.3245z"/>
   <path id="path3195" fill="#274325" d="m25.45,59.36c0-0.3226,0.759-3.22,1.687-6.439,2.627-9.115,5.02-20.29,4.475-20.89-0.348-0.3862-5.594,1.824-7.504,3.161-1.299,0.9097-1.851,1.981-2.159,4.191-0.4171,2.992-2.203,6.724-3.217,6.724-0.3013,0-0.4859-1.881-0.4102-4.181,0.1075-3.266-0.1219-4.463-1.048-5.47-1.147-1.246-1.145-1.289,0.0476-1.289,0.6785,0,2.929-1.029,5.002-2.287s6.154-2.969,9.069-3.803c2.915-0.8334,6.01-2.171,6.878-2.973l1.578-1.457v1.694c0,1.327-0.6376,2.061-2.945,3.391-3.037,1.75-3.82,3.674-2.159,5.307,0.6107,0.6006,0.5571,0.7722-0.2416,0.7722-1.068,0-1.831,2.86-1.845,6.917-0.008,2.369-0.0199,2.363,2.278,1.333,0.9617-0.4309,1.55-1.122,1.363-1.602-0.2003-0.5132,0.3321-1.007,1.358-1.261,1.298-0.3203,2.195-1.474,3.882-4.994,1.207-2.517,2.381-5.762,2.61-7.21l0.415-2.633-2.03,0.293c-1.555,0.2244-2.03,0.05-2.03-0.7452,0-0.6093,0.5407-1.038,1.309-1.038,2.035,0,1.562-1.689-1.34-4.785l-2.649-2.826-8.405,3.757c-7.505,3.355-11.31,5.223-15.17,7.45-2.219,1.279-3.72,2.915-4.123,4.495-0.2192,0.8587-0.6138,1.561-0.8768,1.561-0.2631,0.000046-0.4667,1.375-0.4525,3.057,0.0181,2.144,0.6531,4.252,2.127,7.06,1.155,2.202,2.101,4.453,2.101,5.003,0,0.5497,0.7853,1.293,1.745,1.652,1.89,0.7064,2.806,0.01468,2.825-2.132,0.005-0.6194,0.4517-1.126,0.9916-1.126,1.172,0,1.203,0.4946,0.2633,4.166-1.042,4.069-4.759,7.667-4.026,3.897,0.2436-1.253-0.0649-1.757-1.456-2.381-1.81-0.8108-5.574-7.125-5.582-9.363-0.002-0.6294-0.4439-1.974-0.9816-2.988-1.108-2.09-1.31-5.557-0.3232-5.557,0.3599,0,0.6544-0.38,0.6544-0.8444,0-1.473,2.456-5.835,4.516-8.022,1.093-1.16,3.932-2.967,6.307-4.015,3.633-1.603,4.255-2.106,3.913-3.165-0.5993-1.857,1.999-7.236,4.772-9.88,3.025-2.884,7.108-4.296,12.46-4.308,3.521-0.0079,4.466,0.2446,6.16,1.647,1.413,1.169,2.403,1.526,3.366,1.214,0.7507-0.2432,2.528-0.59,3.95-0.7707l2.585-0.3286-1.93,1.639-1.93,1.639,1.758,1.819c0.9668,1.001,2.075,2.645,2.463,3.654,0.5358,1.394,0.9778,1.722,1.841,1.365,4.813-1.991,5.645,0.01281,1.054,2.536-1.665,0.9151-3.23,1.664-3.478,1.664-0.2479,0-0.9455-0.9411-1.55-2.091-2.713-5.162-3.836-6.556-6.465-8.024-1.544-0.8622-3.01-1.892-3.26-2.289-0.6682-1.063-8.704-1.406-11-0.4697-1.067,0.4347-3.615,2.666-5.663,4.959-2.934,3.286-3.526,4.291-2.797,4.745,0.5087,0.3167,1.126,0.5802,1.371,0.5856,1.044,0.0231,11.34-3.982,11.69-4.55,0.2156-0.343,2.284,1.44,4.596,3.963,3.157,3.445,4.329,5.252,4.709,7.257,0.6039,3.189-0.3837,7.697-2.178,9.94-0.6999,0.875-1.273,2.091-1.273,2.703,0,1.429-3.656,5.975-5.29,6.577-0.6894,0.254-1.253,0.7491-1.253,1.1,0,0.3511-1.217,0.997-2.705,1.435-2.955,0.8707-4.082,2.613-4.886,7.557-0.4148,2.551-0.3699,2.637,1.373,2.637,1.017,0,4.145-1.413,7.18-3.243,4.068-2.453,6.151-4.251,8.556-7.381,1.748-2.276,3.52-4.267,3.936-4.424,1.299-0.49,4.145-8.455,4.607-12.89,0.3054-2.931,0.7153-4.234,1.332-4.234,1.118,0,1.177,1.72,0.0732,2.118-0.6544,0.2359-0.6544,0.4654,0,1.148,1.642,1.712,0.8144,4.824-3.885,14.61-1.067,2.221-2.801,4.664-3.854,5.43-1.053,0.7653-1.914,1.858-1.914,2.429,0,1.478-1.321,2.582-3.09,2.582-0.971,0-1.779,0.5606-2.239,1.554-0.5803,1.252-1.489,1.687-4.684,2.24-2.18,0.3777-4.132,0.9482-4.337,1.268-0.5012,0.7804-6.59,1.218-6.59,0.4738zm28.22-43.08c-0.4008-0.475-0.5105-1.101-0.2437-1.39,0.2668-0.2896,0.1027-0.3096-0.3646-0.0444-0.6547,0.3715-0.6738,0.6906-0.0834,1.39,0.4214,0.4994,0.9135,0.9079,1.093,0.9079,0.18,0-0.00065-0.3886-0.4016-0.8636z"/>
  </g>
 </g>
</svg>